<svg width="43" height="43" viewBox="0 0 43 43" fill="none" xmlns="http://www.w3.org/2000/svg">
<rect x="0.5" y="0.5" width="42" height="42" rx="21" fill="#D9D9D9"/>
<rect x="0.5" y="0.5" width="42" height="42" rx="21" stroke="black"/>
<path d="M24.8333 9H9V24.4576H18.1667V33H34V17.5424H24.8333V9ZM15.8909 12.661L13.2757 19.9475H15.0417L15.467 18.7627H18.1667V22.8305H10.6667V10.6271H23.1667V17.5424H19.6943L17.9427 12.661H15.8909ZM17.7824 17.1356H16.0509L16.9167 14.7235L17.7824 17.1356ZM32.3333 19.1695V31.3729H19.8333V19.1695H32.3333Z" fill="black"/>
<path d="M25.0795 26.224C25.2496 26.4698 25.4369 26.7056 25.64 26.93C24.9956 27.2428 24.2638 27.3995 23.4444 27.4V29C24.7856 29 25.9839 28.6796 27 28.0588C28.0161 28.6796 29.2144 29 30.5556 29V27.4C29.738 27.4 29.0062 27.2432 28.36 26.9296C28.5633 26.7054 28.7504 26.4697 28.9205 26.224C29.4328 25.4743 29.8096 24.6561 30.0368 23.8H31V22.2H27.8889V21H26.1111V22.2H23V23.8H23.9632C24.1904 24.6561 24.5672 25.4743 25.0795 26.224ZM28.1961 23.8C28.0121 24.3537 27.7489 24.8835 27.4128 25.376C27.2872 25.5575 27.1493 25.7321 27 25.8983C26.8615 25.7443 26.733 25.5831 26.6151 25.4159C26.2653 24.9124 25.9924 24.369 25.8037 23.8H28.1961Z" fill="black"/>
</svg>
