<svg width="43" height="43" viewBox="0 0 43 43" fill="none" xmlns="http://www.w3.org/2000/svg">
<rect x="0.5" y="0.5" width="42" height="42" rx="21" fill="#D9D9D9"/>
<rect x="0.5" y="0.5" width="42" height="42" rx="21" stroke="black"/>
<path d="M27.2222 27.0406L21 30.8057L14.7778 27.0406V23.0625L13 22V28.159L21 33L29 28.159V22L27.2222 23.0625V27.0406Z" fill="black"/>
<path d="M21.5 10L9 16.493V18.0434L21.5 25L32.2143 19.0372V23.977H34V16.493L21.5 10ZM30.4286 17.9846L28.6429 18.9784L21.5 22.954L14.3571 18.9784L12.5714 17.9846L11.3338 17.2958L21.5 12.0151L31.6662 17.2958L30.4286 17.9846Z" fill="black"/>
</svg>
