<svg width="43" height="43" viewBox="0 0 43 43" fill="none" xmlns="http://www.w3.org/2000/svg">
<rect x="0.5" y="0.5" width="42" height="42" rx="21" fill="#D9D9D9"/>
<rect x="0.5" y="0.5" width="42" height="42" rx="21" stroke="black"/>
<mask id="mask0_53_12" style="mask-type:luminance" maskUnits="userSpaceOnUse" x="9" y="8" width="26" height="27">
<path d="M35 8H9V35H35V8Z" fill="white"/>
</mask>
<g mask="url(#mask0_53_12)">
<path d="M32.1111 29H11.8889V23.99C11.351 23.7224 10.8622 23.3595 10.4445 22.9175V29C10.4445 29.3978 10.5966 29.7793 10.8675 30.0607C11.1384 30.3419 11.5058 30.5 11.8889 30.5H32.1111C32.4943 30.5 32.8616 30.3419 33.1326 30.0607C33.4034 29.7793 33.5556 29.3978 33.5556 29V22.9175C33.1409 23.3613 32.6512 23.7222 32.1111 23.9825V29Z" fill="black"/>
<path d="M27.0556 24.8C27.2472 24.8 27.4309 24.721 27.5663 24.5804C27.7017 24.4396 27.7778 24.2489 27.7778 24.0499V19.9549H26.3334V21.5H19.1111V23H26.3334V24.0499C26.3334 24.2489 26.4094 24.4396 26.5449 24.5804C26.6804 24.721 26.8641 24.8 27.0556 24.8Z" fill="black"/>
<path d="M32.8333 12.5H26.3333V11.285C26.3258 10.8049 26.1353 10.3475 25.8036 10.013C25.472 9.67843 25.0262 9.49397 24.5639 9.49999H19.4361C18.9738 9.49397 18.528 9.67843 18.1964 10.013C17.8648 10.3475 17.6743 10.8049 17.6667 11.285V12.5H11.1667C10.9751 12.5 10.7914 12.579 10.656 12.7197C10.5206 12.8603 10.4445 13.0511 10.4445 13.25V19.25C10.4445 20.2445 10.8249 21.1984 11.5021 21.9016C12.1794 22.6049 13.0978 23 14.0556 23H16.2222V24.05C16.2222 24.2489 16.2983 24.4396 16.4338 24.5804C16.5692 24.721 16.7529 24.8 16.9445 24.8C17.136 24.8 17.3197 24.721 17.4552 24.5804C17.5906 24.4396 17.6667 24.2489 17.6667 24.05V19.955H16.2222V21.5H14.0556C13.4809 21.5 12.9298 21.263 12.5235 20.841C12.1172 20.419 11.8889 19.8467 11.8889 19.25V14H32.1111V19.25C32.1111 19.8467 31.8828 20.419 31.4766 20.841C31.0702 21.263 30.5191 21.5 29.9444 21.5H29.2223V23H29.9444C30.9022 23 31.8206 22.6049 32.4979 21.9016C33.1751 21.1984 33.5556 20.2445 33.5556 19.25V13.25C33.5556 13.0511 33.4794 12.8603 33.344 12.7197C33.2086 12.579 33.0249 12.5 32.8333 12.5ZM24.8889 12.5H19.1111V11.3225C19.1149 11.2356 19.1507 11.1536 19.2113 11.0935C19.2718 11.0334 19.3524 10.9999 19.4361 11H24.5711C24.6119 10.999 24.6524 11.0064 24.6906 11.0216C24.7286 11.0369 24.7634 11.0599 24.7928 11.0891C24.8224 11.1184 24.846 11.1534 24.8625 11.1921C24.879 11.2309 24.888 11.2726 24.8889 11.315V12.5Z" fill="black"/>
</g>
</svg>
